<?xml version="1.0" encoding="UTF-8" standalone="no"?>
<!DOCTYPE svg PUBLIC "-//W3C//DTD SVG 1.1//EN"
 "http://www.w3.org/Graphics/SVG/1.1/DTD/svg11.dtd">
<!-- Generated by graphviz version 2.43.0 (0)
 -->
<!-- Title: MNL Pages: 1 -->
<svg width="2098pt" height="528pt"
 viewBox="0.00 0.00 2097.69 527.89" xmlns="http://www.w3.org/2000/svg" xmlns:xlink="http://www.w3.org/1999/xlink">
<g id="graph0" class="graph" transform="scale(1 1) rotate(0) translate(4 523.89)">
<title>MNL</title>
<polygon fill="white" stroke="transparent" points="-4,4 -4,-523.89 2093.69,-523.89 2093.69,4 -4,4"/>
<g id="clust3" class="cluster">
<title>cluster_operators</title>
<polygon fill="none" stroke="black" stroke-dasharray="5,2" points="1197,-136 1197,-410 1698,-410 1698,-136 1197,-136"/>
</g>
<g id="clust6" class="cluster">
<title>cluster_stepsolv</title>
<polygon fill="none" stroke="black" stroke-dasharray="5,2" points="248,-136 248,-358 722,-358 722,-136 248,-136"/>
<text text-anchor="middle" x="485" y="-342.8" font-family="Helvetica,Arial,sans-serif" font-size="14.00">StepSolver</text>
</g>
<g id="clust9" class="cluster">
<title>cluster_iter_solv</title>
<polygon fill="none" stroke="black" stroke-dasharray="5,2" points="730,-64 730,-283 1189,-283 1189,-64 730,-64"/>
<text text-anchor="middle" x="959.5" y="-267.8" font-family="Helvetica,Arial,sans-serif" font-size="14.00">IterationSolver</text>
</g>
<!-- keywords -->
<g id="node1" class="node">
<title>keywords</title>
<ellipse fill="none" stroke="black" cx="1869" cy="-384" rx="49.29" ry="18"/>
<text text-anchor="middle" x="1869" y="-380.3" font-family="Helvetica,Arial,sans-serif" font-size="14.00">Keywords</text>
</g>
<!-- problem -->
<g id="node2" class="node">
<title>problem</title>
<ellipse fill="none" stroke="black" cx="2013" cy="-384" rx="76.89" ry="18"/>
<text text-anchor="middle" x="2013" y="-380.3" font-family="Helvetica,Arial,sans-serif" font-size="14.00">PhysicalProblem</text>
</g>
<!-- type -->
<g id="node3" class="node">
<title>type</title>
<ellipse fill="none" stroke="black" cx="729" cy="-384" rx="63.09" ry="18"/>
<text text-anchor="middle" x="729" y="-380.3" font-family="Helvetica,Arial,sans-serif" font-size="14.00">ProblemType</text>
</g>
<!-- state -->
<g id="node4" class="node">
<title>state</title>
<polygon fill="none" stroke="black" points="908,-402 810,-402 810,-366 908,-366 908,-402"/>
<text text-anchor="middle" x="859" y="-380.3" font-family="Helvetica,Arial,sans-serif" font-size="14.00">PhysicalState</text>
</g>
<!-- result -->
<g id="node5" class="node">
<title>result</title>
<ellipse fill="none" stroke="black" cx="962" cy="-384" rx="36" ry="18"/>
<text text-anchor="middle" x="962" y="-380.3" font-family="Helvetica,Arial,sans-serif" font-size="14.00">Result</text>
</g>
<!-- contact -->
<g id="node6" class="node">
<title>contact</title>
<polygon fill="none" stroke="black" points="1078.5,-402 1015.5,-402 1015.5,-366 1078.5,-366 1078.5,-402"/>
<text text-anchor="middle" x="1047" y="-380.3" font-family="Helvetica,Arial,sans-serif" font-size="14.00">Contact</text>
</g>
<!-- linsolv -->
<g id="node7" class="node">
<title>linsolv</title>
<polygon fill="none" stroke="black" points="1189,-402 1097,-402 1097,-366 1189,-366 1189,-402"/>
<text text-anchor="middle" x="1143" y="-380.3" font-family="Helvetica,Arial,sans-serif" font-size="14.00">LinearSolver</text>
</g>
<!-- context -->
<g id="node8" class="node">
<title>context</title>
<ellipse fill="none" stroke="black" cx="1095" cy="-478.95" rx="40.89" ry="40.89"/>
<text text-anchor="middle" x="1095" y="-475.25" font-family="Helvetica,Arial,sans-serif" font-size="14.00">Context</text>
</g>
<!-- context&#45;&gt;keywords -->
<g id="edge3" class="edge">
<title>context&#45;&gt;keywords</title>
<path fill="none" stroke="black" d="M1136.13,-478.48C1247.01,-478.98 1560.62,-474.14 1811,-410 1817.85,-408.24 1824.93,-405.79 1831.69,-403.09"/>
<polygon fill="black" stroke="black" points="1833.45,-406.15 1841.3,-399.03 1830.73,-399.7 1833.45,-406.15"/>
</g>
<!-- context&#45;&gt;problem -->
<g id="edge1" class="edge">
<title>context&#45;&gt;problem</title>
<path fill="none" stroke="black" d="M1136.07,-477.51C1257.82,-475.59 1626.98,-465.27 1927,-410 1938,-407.97 1949.62,-405.11 1960.63,-402.04"/>
<polygon fill="black" stroke="black" points="1961.9,-405.32 1970.54,-399.18 1959.96,-398.59 1961.9,-405.32"/>
</g>
<!-- context&#45;&gt;type -->
<g id="edge2" class="edge">
<title>context&#45;&gt;type</title>
<path fill="none" stroke="black" d="M1054.71,-470.06C997.74,-458.59 890.6,-435.83 801,-410 792.78,-407.63 784.11,-404.86 775.75,-402.05"/>
<polygon fill="black" stroke="black" points="776.72,-398.68 766.13,-398.74 774.45,-405.3 776.72,-398.68"/>
</g>
<!-- context&#45;&gt;state -->
<g id="edge4" class="edge">
<title>context&#45;&gt;state</title>
<path fill="none" stroke="black" d="M1056.62,-463.83C1020.45,-450.4 964.81,-429.42 917,-410 913.8,-408.7 910.52,-407.35 907.21,-405.97"/>
<polygon fill="black" stroke="black" points="908.48,-402.7 897.9,-402.04 905.76,-409.15 908.48,-402.7"/>
</g>
<!-- context&#45;&gt;result -->
<g id="edge5" class="edge">
<title>context&#45;&gt;result</title>
<path fill="none" stroke="black" d="M1061.78,-454.73C1039.83,-439.39 1011.37,-419.5 990.46,-404.89"/>
<polygon fill="black" stroke="black" points="992.21,-401.84 982.01,-398.98 988.2,-407.58 992.21,-401.84"/>
</g>
<!-- context&#45;&gt;contact -->
<g id="edge8" class="edge">
<title>context&#45;&gt;contact</title>
<path fill="none" stroke="black" d="M1076.58,-442.28C1071.23,-431.91 1065.48,-420.78 1060.49,-411.12"/>
<polygon fill="black" stroke="black" points="1063.49,-409.31 1055.79,-402.03 1057.27,-412.52 1063.49,-409.31"/>
</g>
<!-- context&#45;&gt;linsolv -->
<g id="edge9" class="edge">
<title>context&#45;&gt;linsolv</title>
<path fill="none" stroke="black" d="M1113.42,-442.28C1118.77,-431.91 1124.52,-420.78 1129.51,-411.12"/>
<polygon fill="black" stroke="black" points="1132.73,-412.52 1134.21,-402.03 1126.51,-409.31 1132.73,-412.52"/>
</g>
<!-- timestepper -->
<g id="node9" class="node">
<title>timestepper</title>
<polygon fill="none" stroke="black" points="1801.5,-402 1706.5,-402 1706.5,-366 1801.5,-366 1801.5,-402"/>
<text text-anchor="middle" x="1754" y="-380.3" font-family="Helvetica,Arial,sans-serif" font-size="14.00">TimeStepper</text>
</g>
<!-- context&#45;&gt;timestepper -->
<g id="edge6" class="edge">
<title>context&#45;&gt;timestepper</title>
<path fill="none" stroke="black" d="M1136.04,-478.06C1235.29,-477.32 1495.37,-469.38 1702,-410 1705.79,-408.91 1709.65,-407.57 1713.46,-406.07"/>
<polygon fill="black" stroke="black" points="1714.95,-409.24 1722.77,-402.09 1712.2,-402.8 1714.95,-409.24"/>
</g>
<!-- operators -->
<g id="node10" class="node">
<title>operators</title>
<polygon fill="none" stroke="black" stroke-dasharray="5,2" points="1395.5,-402 1244.5,-402 1244.5,-366 1395.5,-366 1395.5,-402"/>
<text text-anchor="middle" x="1320" y="-380.3" font-family="Helvetica,Arial,sans-serif" font-size="14.00">BaseOperators {abstr}</text>
</g>
<!-- context&#45;&gt;operators -->
<g id="edge7" class="edge">
<title>context&#45;&gt;operators</title>
<path fill="none" stroke="black" d="M1132.66,-462.39C1164.54,-449.22 1211.1,-429.99 1249.83,-413.99"/>
<polygon fill="black" stroke="black" points="1251.58,-417.05 1259.49,-410 1248.91,-410.58 1251.58,-417.05"/>
</g>
<!-- observ -->
<g id="node16" class="node">
<title>observ</title>
<polygon fill="none" stroke="black" stroke-dasharray="5,2" points="1785,-327 1717,-327 1717,-291 1791,-291 1791,-321 1785,-327"/>
<polyline fill="none" stroke="black" stroke-dasharray="5,2" points="1785,-327 1785,-321 "/>
<polyline fill="none" stroke="black" stroke-dasharray="5,2" points="1791,-321 1785,-321 "/>
<text text-anchor="middle" x="1754" y="-305.3" font-family="Helvetica,Arial,sans-serif" font-size="14.00">Observer</text>
</g>
<!-- timestepper&#45;&gt;observ -->
<g id="edge42" class="edge">
<title>timestepper&#45;&gt;observ</title>
<path fill="none" stroke="black" stroke-dasharray="5,2" d="M1754,-355.49C1754,-345.98 1754,-335.61 1754,-327.18"/>
<polygon fill="none" stroke="black" points="1750.5,-355.7 1754,-365.7 1757.5,-355.7 1750.5,-355.7"/>
</g>
<!-- mixin_oper -->
<g id="node17" class="node">
<title>mixin_oper</title>
<polygon fill="none" stroke="black" stroke-dasharray="5,2" points="1644,-402 1414,-402 1414,-366 1650,-366 1650,-396 1644,-402"/>
<polyline fill="none" stroke="black" stroke-dasharray="5,2" points="1644,-402 1644,-396 "/>
<polyline fill="none" stroke="black" stroke-dasharray="5,2" points="1650,-396 1644,-396 "/>
<text text-anchor="middle" x="1532" y="-380.3" font-family="Helvetica,Arial,sans-serif" font-size="14.00">.pb/.state/.contact + DispatcherMixin</text>
</g>
<!-- operators&#45;&gt;mixin_oper -->
<g id="edge11" class="edge">
<title>operators&#45;&gt;mixin_oper</title>
<path fill="none" stroke="black" stroke-dasharray="5,2" d="M1405.95,-384C1408.59,-384 1411.23,-384 1413.87,-384"/>
<polygon fill="none" stroke="black" points="1405.77,-380.5 1395.77,-384 1405.77,-387.5 1405.77,-380.5"/>
</g>
<!-- statopers -->
<g id="node18" class="node">
<title>statopers</title>
<polygon fill="none" stroke="black" points="1340.5,-327 1205.5,-327 1205.5,-291 1340.5,-291 1340.5,-327"/>
<text text-anchor="middle" x="1273" y="-305.3" font-family="Helvetica,Arial,sans-serif" font-size="14.00">MecaStatOperators</text>
</g>
<!-- operators&#45;&gt;statopers -->
<g id="edge12" class="edge">
<title>operators&#45;&gt;statopers</title>
<path fill="none" stroke="black" d="M1303.27,-357.01C1296.89,-347.1 1289.78,-336.07 1284.06,-327.18"/>
<polygon fill="none" stroke="black" points="1300.51,-359.19 1308.86,-365.7 1306.39,-355.4 1300.51,-359.19"/>
</g>
<!-- theropers -->
<g id="node19" class="node">
<title>theropers</title>
<polygon fill="none" stroke="black" points="1487,-327 1359,-327 1359,-291 1487,-291 1487,-327"/>
<text text-anchor="middle" x="1423" y="-305.3" font-family="Helvetica,Arial,sans-serif" font-size="14.00">ThermalOperators</text>
</g>
<!-- operators&#45;&gt;theropers -->
<g id="edge14" class="edge">
<title>operators&#45;&gt;theropers</title>
<path fill="none" stroke="black" d="M1352.67,-359.85C1367.7,-349.2 1385.21,-336.78 1399,-327.01"/>
<polygon fill="none" stroke="black" points="1350.28,-357.25 1344.15,-365.88 1354.33,-362.96 1350.28,-357.25"/>
</g>
<!-- dynopers -->
<g id="node20" class="node">
<title>dynopers</title>
<polygon fill="none" stroke="black" stroke-dasharray="5,2" points="1690.5,-327 1505.5,-327 1505.5,-291 1690.5,-291 1690.5,-327"/>
<text text-anchor="middle" x="1598" y="-305.3" font-family="Helvetica,Arial,sans-serif" font-size="14.00">MecaDynaOperators {abstr}</text>
</g>
<!-- operators&#45;&gt;dynopers -->
<g id="edge13" class="edge">
<title>operators&#45;&gt;dynopers</title>
<path fill="none" stroke="black" d="M1406.04,-366.06C1447.01,-361.34 1459.64,-367.82 1496,-358 1521.7,-351.06 1548.88,-337.95 1568.71,-327.18"/>
<polygon fill="none" stroke="black" points="1405.39,-362.62 1395.93,-367.39 1406.3,-369.56 1405.39,-362.62"/>
</g>
<!-- mnl -->
<g id="node11" class="node">
<title>mnl</title>
<polygon fill="none" stroke="black" points="732,-496.95 594,-496.95 594,-460.95 732,-460.95 732,-496.95"/>
<text text-anchor="middle" x="663" y="-475.25" font-family="Helvetica,Arial,sans-serif" font-size="14.00">meca_non_line_ops</text>
</g>
<!-- mnl&#45;&gt;context -->
<g id="edge33" class="edge">
<title>mnl&#45;&gt;context</title>
<path fill="none" stroke="black" stroke-width="2" d="M732.19,-478.95C836.07,-478.95 939.96,-478.95 1043.85,-478.95"/>
<polygon fill="black" stroke="black" stroke-width="2" points="1043.9,-482.45 1053.9,-478.95 1043.9,-475.45 1043.9,-482.45"/>
<text text-anchor="middle" x="870.69" y="-482.75" font-family="Helvetica,Arial,sans-serif" font-size="14.00">creates</text>
</g>
<!-- nl_operator -->
<g id="node12" class="node">
<title>nl_operator</title>
<polygon fill="none" stroke="black" points="317,-402 183,-402 183,-366 317,-366 317,-402"/>
<text text-anchor="middle" x="250" y="-380.3" font-family="Helvetica,Arial,sans-serif" font-size="14.00">NonLinearOperator</text>
</g>
<!-- mnl&#45;&gt;nl_operator -->
<g id="edge32" class="edge">
<title>mnl&#45;&gt;nl_operator</title>
<path fill="none" stroke="black" d="M593.71,-466.46C525.19,-454.52 417.6,-434.21 326,-410 320.32,-408.5 314.45,-406.81 308.59,-405.04"/>
<polygon fill="black" stroke="black" points="309.39,-401.62 298.8,-402 307.32,-408.31 309.39,-401.62"/>
</g>
<!-- mixin_pb -->
<g id="node13" class="node">
<title>mixin_pb</title>
<polygon fill="none" stroke="black" stroke-dasharray="5,2" points="581,-402 335,-402 335,-366 587,-366 587,-396 581,-402"/>
<polyline fill="none" stroke="black" stroke-dasharray="5,2" points="581,-402 581,-396 "/>
<polyline fill="none" stroke="black" stroke-dasharray="5,2" points="587,-396 581,-396 "/>
<text text-anchor="middle" x="461" y="-380.3" font-family="Helvetica,Arial,sans-serif" font-size="14.00">.pb/.state/.kwds/.pbtype/.stepper/.result</text>
</g>
<!-- nl_operator&#45;&gt;mixin_pb -->
<g id="edge10" class="edge">
<title>nl_operator&#45;&gt;mixin_pb</title>
<path fill="none" stroke="black" stroke-dasharray="5,2" d="M327.41,-384C329.89,-384 332.38,-384 334.87,-384"/>
<polygon fill="none" stroke="black" points="327.17,-380.5 317.17,-384 327.17,-387.5 327.17,-380.5"/>
</g>
<!-- storage -->
<g id="node14" class="node">
<title>storage</title>
<polygon fill="none" stroke="black" points="118,-327 0,-327 0,-291 118,-291 118,-327"/>
<text text-anchor="middle" x="59" y="-305.3" font-family="Helvetica,Arial,sans-serif" font-size="14.00">StorageManager</text>
</g>
<!-- nl_operator&#45;&gt;storage -->
<g id="edge34" class="edge">
<title>nl_operator&#45;&gt;storage</title>
<path fill="none" stroke="black" d="M182.72,-374.52C164.19,-370.81 144.4,-365.51 127,-358 112.69,-351.82 98.38,-342.33 86.59,-333.42"/>
<polygon fill="black" stroke="black" points="88.53,-330.49 78.5,-327.08 84.22,-336 88.53,-330.49"/>
</g>
<!-- hook -->
<g id="node15" class="node">
<title>hook</title>
<polygon fill="none" stroke="black" points="239.5,-327 136.5,-327 136.5,-291 239.5,-291 239.5,-327"/>
<text text-anchor="middle" x="188" y="-305.3" font-family="Helvetica,Arial,sans-serif" font-size="14.00">PostStepHook</text>
</g>
<!-- nl_operator&#45;&gt;hook -->
<g id="edge36" class="edge">
<title>nl_operator&#45;&gt;hook</title>
<path fill="none" stroke="black" d="M235.31,-365.7C227.51,-356.52 217.79,-345.07 209.19,-334.94"/>
<polygon fill="black" stroke="black" points="211.73,-332.53 202.59,-327.18 206.39,-337.06 211.73,-332.53"/>
</g>
<!-- stepsolv -->
<g id="node26" class="node">
<title>stepsolv</title>
<polygon fill="none" stroke="black" stroke-dasharray="5,2" points="432,-327 276,-327 276,-291 432,-291 432,-327"/>
<text text-anchor="middle" x="354" y="-305.3" font-family="Helvetica,Arial,sans-serif" font-size="14.00">BaseStepSolver {abstr}</text>
</g>
<!-- nl_operator&#45;&gt;stepsolv -->
<g id="edge35" class="edge">
<title>nl_operator&#45;&gt;stepsolv</title>
<path fill="none" stroke="black" d="M274.38,-365.88C275.38,-365.19 276.39,-364.47 277.42,-363.75"/>
<polygon fill="black" stroke="black" points="279.45,-366.61 285.62,-358 275.42,-360.88 279.45,-366.61"/>
<text text-anchor="middle" x="220.38" y="-352.58" font-family="Helvetica,Arial,sans-serif" font-size="14.00">loops on timesteps</text>
</g>
<!-- integr -->
<g id="node21" class="node">
<title>integr</title>
<polygon fill="none" stroke="black" points="1650.5,-252 1545.5,-252 1545.5,-216 1650.5,-216 1650.5,-252"/>
<text text-anchor="middle" x="1598" y="-230.3" font-family="Helvetica,Arial,sans-serif" font-size="14.00">BaseIntegrator</text>
</g>
<!-- dynopers&#45;&gt;integr -->
<g id="edge15" class="edge">
<title>dynopers&#45;&gt;integr</title>
<path fill="none" stroke="black" d="M1598,-280.49C1598,-270.98 1598,-260.61 1598,-252.18"/>
<polygon fill="none" stroke="black" points="1594.5,-280.7 1598,-290.7 1601.5,-280.7 1594.5,-280.7"/>
</g>
<!-- newmark -->
<g id="node22" class="node">
<title>newmark</title>
<polygon fill="none" stroke="black" points="1664,-180 1532,-180 1532,-144 1664,-144 1664,-180"/>
<text text-anchor="middle" x="1598" y="-158.3" font-family="Helvetica,Arial,sans-serif" font-size="14.00">NewmarkIntegrator</text>
</g>
<!-- integr&#45;&gt;newmark -->
<g id="edge16" class="edge">
<title>integr&#45;&gt;newmark</title>
<path fill="none" stroke="black" d="M1598,-205.67C1598,-197.05 1598,-187.79 1598,-180.1"/>
<polygon fill="none" stroke="black" points="1594.5,-205.7 1598,-215.7 1601.5,-205.7 1594.5,-205.7"/>
</g>
<!-- mecastat -->
<g id="node23" class="node">
<title>mecastat</title>
<polygon fill="none" stroke="black" points="396,-252 256,-252 256,-216 396,-216 396,-252"/>
<text text-anchor="middle" x="326" y="-230.3" font-family="Helvetica,Arial,sans-serif" font-size="14.00">MecaStatStepSolver</text>
</g>
<!-- mecadyn -->
<g id="node24" class="node">
<title>mecadyn</title>
<polygon fill="none" stroke="black" points="562,-252 414,-252 414,-216 562,-216 562,-252"/>
<text text-anchor="middle" x="488" y="-230.3" font-family="Helvetica,Arial,sans-serif" font-size="14.00">MecaDynaStepSolver</text>
</g>
<!-- implicit -->
<g id="node28" class="node">
<title>implicit</title>
<polygon fill="none" stroke="black" points="407.5,-180 282.5,-180 282.5,-144 407.5,-144 407.5,-180"/>
<text text-anchor="middle" x="345" y="-158.3" font-family="Helvetica,Arial,sans-serif" font-size="14.00">ImplicitStepSolver</text>
</g>
<!-- mecadyn&#45;&gt;implicit -->
<g id="edge21" class="edge">
<title>mecadyn&#45;&gt;implicit</title>
<path fill="none" stroke="black" d="M443.88,-211.4C423.39,-201.37 399.36,-189.61 380.12,-180.19"/>
<polygon fill="none" stroke="black" points="442.5,-214.62 453.02,-215.88 445.58,-208.34 442.5,-214.62"/>
</g>
<!-- explicit -->
<g id="node29" class="node">
<title>explicit</title>
<polygon fill="none" stroke="black" points="550.5,-180 425.5,-180 425.5,-144 550.5,-144 550.5,-180"/>
<text text-anchor="middle" x="488" y="-158.3" font-family="Helvetica,Arial,sans-serif" font-size="14.00">ExplicitStepSolver</text>
</g>
<!-- mecadyn&#45;&gt;explicit -->
<g id="edge22" class="edge">
<title>mecadyn&#45;&gt;explicit</title>
<path fill="none" stroke="black" d="M488,-205.67C488,-197.05 488,-187.79 488,-180.1"/>
<polygon fill="none" stroke="black" points="484.5,-205.7 488,-215.7 491.5,-205.7 484.5,-205.7"/>
</g>
<!-- multi -->
<g id="node30" class="node">
<title>multi</title>
<polygon fill="none" stroke="black" points="681,-180 569,-180 569,-144 681,-144 681,-180"/>
<text text-anchor="middle" x="625" y="-158.3" font-family="Helvetica,Arial,sans-serif" font-size="14.00">MultiStepSolver</text>
</g>
<!-- mecadyn&#45;&gt;multi -->
<g id="edge23" class="edge">
<title>mecadyn&#45;&gt;multi</title>
<path fill="none" stroke="black" d="M530.53,-211.27C550.11,-201.26 573.01,-189.57 591.36,-180.19"/>
<polygon fill="none" stroke="black" points="528.83,-208.21 521.51,-215.88 532.01,-214.44 528.83,-208.21"/>
</g>
<!-- ther -->
<g id="node25" class="node">
<title>ther</title>
<polygon fill="none" stroke="black" points="713.5,-252 580.5,-252 580.5,-216 713.5,-216 713.5,-252"/>
<text text-anchor="middle" x="647" y="-230.3" font-family="Helvetica,Arial,sans-serif" font-size="14.00">ThermalStepSolver</text>
</g>
<!-- stepsolv&#45;&gt;mecastat -->
<g id="edge18" class="edge">
<title>stepsolv&#45;&gt;mecastat</title>
<path fill="none" stroke="black" d="M343.68,-281.1C339.97,-271.43 335.89,-260.79 332.59,-252.18"/>
<polygon fill="none" stroke="black" points="340.52,-282.62 347.36,-290.7 347.05,-280.11 340.52,-282.62"/>
</g>
<!-- stepsolv&#45;&gt;mecadyn -->
<g id="edge19" class="edge">
<title>stepsolv&#45;&gt;mecadyn</title>
<path fill="none" stroke="black" d="M398.82,-286.24C400.92,-285.16 402.99,-284.07 405,-283 423.36,-273.21 443.58,-261.53 459.46,-252.15"/>
<polygon fill="none" stroke="black" points="396.88,-283.31 389.55,-290.96 400.05,-289.55 396.88,-283.31"/>
</g>
<!-- stepsolv&#45;&gt;ther -->
<g id="edge20" class="edge">
<title>stepsolv&#45;&gt;ther</title>
<path fill="none" stroke="black" d="M442.35,-291.17C481.77,-288 545.77,-291.15 571,-283 591.35,-276.43 611.68,-263.14 626.19,-252.21"/>
<polygon fill="none" stroke="black" points="441.77,-287.72 432.18,-292.22 442.48,-294.68 441.77,-287.72"/>
</g>
<!-- mixin_step -->
<g id="node27" class="node">
<title>mixin_step</title>
<polygon fill="none" stroke="black" stroke-dasharray="5,2" points="708,-327 450,-327 450,-291 714,-291 714,-321 708,-327"/>
<polyline fill="none" stroke="black" stroke-dasharray="5,2" points="708,-327 708,-321 "/>
<polyline fill="none" stroke="black" stroke-dasharray="5,2" points="714,-321 708,-321 "/>
<text text-anchor="middle" x="582" y="-305.3" font-family="Helvetica,Arial,sans-serif" font-size="14.00">.pb/.state/.oper/.linsolv + DispatcherMixin</text>
</g>
<!-- stepsolv&#45;&gt;mixin_step -->
<g id="edge17" class="edge">
<title>stepsolv&#45;&gt;mixin_step</title>
<path fill="none" stroke="black" stroke-dasharray="5,2" d="M442.51,-309C444.98,-309 447.44,-309 449.91,-309"/>
<polygon fill="none" stroke="black" points="442.38,-305.5 432.38,-309 442.37,-312.5 442.38,-305.5"/>
</g>
<!-- iter_solver -->
<g id="node31" class="node">
<title>iter_solver</title>
<polygon fill="none" stroke="black" stroke-dasharray="5,2" points="920.5,-252 743.5,-252 743.5,-216 920.5,-216 920.5,-252"/>
<text text-anchor="middle" x="832" y="-230.3" font-family="Helvetica,Arial,sans-serif" font-size="14.00">BaseIterationSolver {abstr}</text>
</g>
<!-- stepsolv&#45;&gt;iter_solver -->
<g id="edge37" class="edge">
<title>stepsolv&#45;&gt;iter_solver</title>
<path fill="none" stroke="black" d="M722,-283.98C724,-283.5 726,-283.01 728,-282.52"/>
<polygon fill="black" stroke="black" points="721.12,-287.8 730,-282.03 719.46,-281 721.12,-287.8"/>
</g>
<!-- mixin_iter -->
<g id="node32" class="node">
<title>mixin_iter</title>
<polygon fill="none" stroke="black" stroke-dasharray="5,2" points="1169,-252 939,-252 939,-216 1175,-216 1175,-246 1169,-252"/>
<polyline fill="none" stroke="black" stroke-dasharray="5,2" points="1169,-252 1169,-246 "/>
<polyline fill="none" stroke="black" stroke-dasharray="5,2" points="1175,-246 1169,-246 "/>
<text text-anchor="middle" x="1057" y="-230.3" font-family="Helvetica,Arial,sans-serif" font-size="14.00">.state/.kwds/.oper + DispatcherMixin</text>
</g>
<!-- iter_solver&#45;&gt;mixin_iter -->
<g id="edge24" class="edge">
<title>iter_solver&#45;&gt;mixin_iter</title>
<path fill="none" stroke="black" stroke-dasharray="5,2" d="M930.95,-234C933.59,-234 936.22,-234 938.86,-234"/>
<polygon fill="none" stroke="black" points="930.77,-230.5 920.77,-234 930.77,-237.5 930.77,-230.5"/>
</g>
<!-- newton -->
<g id="node33" class="node">
<title>newton</title>
<polygon fill="none" stroke="black" points="1068.5,-180 967.5,-180 967.5,-144 1068.5,-144 1068.5,-180"/>
<text text-anchor="middle" x="1018" y="-158.3" font-family="Helvetica,Arial,sans-serif" font-size="14.00">NewtonSolver</text>
</g>
<!-- iter_solver&#45;&gt;newton -->
<g id="edge29" class="edge">
<title>iter_solver&#45;&gt;newton</title>
<path fill="none" stroke="black" d="M886.91,-212.33C914.21,-202.06 946.79,-189.8 972.65,-180.07"/>
<polygon fill="none" stroke="black" points="885.63,-209.08 877.5,-215.88 888.09,-215.63 885.63,-209.08"/>
</g>
<!-- snes -->
<g id="node35" class="node">
<title>snes</title>
<polygon fill="none" stroke="black" points="830,-180 738,-180 738,-144 830,-144 830,-180"/>
<text text-anchor="middle" x="784" y="-158.3" font-family="Helvetica,Arial,sans-serif" font-size="14.00">SNESSolver</text>
</g>
<!-- iter_solver&#45;&gt;snes -->
<g id="edge30" class="edge">
<title>iter_solver&#45;&gt;snes</title>
<path fill="none" stroke="black" d="M814.42,-207.36C808.19,-198.28 801.35,-188.3 795.73,-180.1"/>
<polygon fill="none" stroke="black" points="811.59,-209.43 820.13,-215.7 817.37,-205.47 811.59,-209.43"/>
</g>
<!-- raspen -->
<g id="node37" class="node">
<title>raspen</title>
<polygon fill="none" stroke="black" points="949.5,-180 848.5,-180 848.5,-144 949.5,-144 949.5,-180"/>
<text text-anchor="middle" x="899" y="-158.3" font-family="Helvetica,Arial,sans-serif" font-size="14.00">RaspenSolver</text>
</g>
<!-- iter_solver&#45;&gt;raspen -->
<g id="edge31" class="edge">
<title>iter_solver&#45;&gt;raspen</title>
<path fill="none" stroke="black" d="M855.74,-208.2C864.64,-198.9 874.54,-188.55 882.63,-180.1"/>
<polygon fill="none" stroke="black" points="852.95,-206.05 848.56,-215.7 858,-210.89 852.95,-206.05"/>
</g>
<!-- event -->
<g id="node34" class="node">
<title>event</title>
<polygon fill="none" stroke="black" stroke-dasharray="5,2" points="1175,-180 1087,-180 1087,-144 1181,-144 1181,-174 1175,-180"/>
<polyline fill="none" stroke="black" stroke-dasharray="5,2" points="1175,-180 1175,-174 "/>
<polyline fill="none" stroke="black" stroke-dasharray="5,2" points="1181,-174 1175,-174 "/>
<text text-anchor="middle" x="1134" y="-158.3" font-family="Helvetica,Arial,sans-serif" font-size="14.00">EventSource</text>
</g>
<!-- newton&#45;&gt;event -->
<g id="edge25" class="edge">
<title>newton&#45;&gt;event</title>
<path fill="none" stroke="black" stroke-dasharray="5,2" d="M1078.93,-162C1081.57,-162 1084.21,-162 1086.85,-162"/>
<polygon fill="none" stroke="black" points="1078.75,-158.5 1068.75,-162 1078.75,-165.5 1078.75,-158.5"/>
</g>
<!-- mixin_newt -->
<g id="node39" class="node">
<title>mixin_newt</title>
<polygon fill="none" stroke="black" stroke-dasharray="5,2" points="1092,-108 958,-108 958,-72 1098,-72 1098,-102 1092,-108"/>
<polyline fill="none" stroke="black" stroke-dasharray="5,2" points="1092,-108 1092,-102 "/>
<polyline fill="none" stroke="black" stroke-dasharray="5,2" points="1098,-102 1092,-102 "/>
<text text-anchor="middle" x="1028" y="-86.3" font-family="Helvetica,Arial,sans-serif" font-size="14.00">+.pb/.linsolv/.contact</text>
</g>
<!-- newton&#45;&gt;mixin_newt -->
<g id="edge28" class="edge">
<title>newton&#45;&gt;mixin_newt</title>
<path fill="none" stroke="black" stroke-dasharray="5,2" d="M1021.9,-133.67C1023.14,-125.05 1024.46,-115.79 1025.56,-108.1"/>
<polygon fill="none" stroke="black" points="1018.42,-133.3 1020.47,-143.7 1025.35,-134.29 1018.42,-133.3"/>
</g>
<!-- linesearch -->
<g id="node40" class="node">
<title>linesearch</title>
<polygon fill="none" stroke="black" points="1282.5,-108 1197.5,-108 1197.5,-72 1282.5,-72 1282.5,-108"/>
<text text-anchor="middle" x="1240" y="-86.3" font-family="Helvetica,Arial,sans-serif" font-size="14.00">LineSearch</text>
</g>
<!-- newton&#45;&gt;linesearch -->
<g id="edge40" class="edge">
<title>newton&#45;&gt;linesearch</title>
<path fill="none" stroke="black" d="M1056.4,-143.96C1063.51,-141.11 1070.92,-138.32 1078,-136 1124.86,-120.64 1140.67,-122.82 1187.49,-109.54"/>
<polygon fill="black" stroke="black" points="1188.68,-112.84 1197.29,-106.67 1186.71,-106.13 1188.68,-112.84"/>
</g>
<!-- conv_manager -->
<g id="node42" class="node">
<title>conv_manager</title>
<polygon fill="none" stroke="black" points="1451.5,-108 1300.5,-108 1300.5,-72 1451.5,-72 1451.5,-108"/>
<text text-anchor="middle" x="1376" y="-86.3" font-family="Helvetica,Arial,sans-serif" font-size="14.00">ConvergenceManager</text>
</g>
<!-- newton&#45;&gt;conv_manager -->
<g id="edge41" class="edge">
<title>newton&#45;&gt;conv_manager</title>
<path fill="none" stroke="black" d="M1054.59,-143.96C1062.2,-140.93 1070.26,-138.08 1078,-136 1167.56,-111.94 1195.53,-122.95 1290.47,-108.16"/>
<polygon fill="black" stroke="black" points="1291.18,-111.59 1300.49,-106.54 1290.06,-104.68 1291.18,-111.59"/>
</g>
<!-- mixin_snes -->
<g id="node36" class="node">
<title>mixin_snes</title>
<polygon fill="none" stroke="black" stroke-dasharray="5,2" points="822.5,-108 739.5,-108 739.5,-72 828.5,-72 828.5,-102 822.5,-108"/>
<polyline fill="none" stroke="black" stroke-dasharray="5,2" points="822.5,-108 822.5,-102 "/>
<polyline fill="none" stroke="black" stroke-dasharray="5,2" points="828.5,-102 822.5,-102 "/>
<text text-anchor="middle" x="784" y="-86.3" font-family="Helvetica,Arial,sans-serif" font-size="14.00">+.pb/.linsolv</text>
</g>
<!-- snes&#45;&gt;mixin_snes -->
<g id="edge26" class="edge">
<title>snes&#45;&gt;mixin_snes</title>
<path fill="none" stroke="black" stroke-dasharray="5,2" d="M784,-133.67C784,-125.05 784,-115.79 784,-108.1"/>
<polygon fill="none" stroke="black" points="780.5,-133.7 784,-143.7 787.5,-133.7 780.5,-133.7"/>
</g>
<!-- mixin_rasp -->
<g id="node38" class="node">
<title>mixin_rasp</title>
<polygon fill="none" stroke="black" stroke-dasharray="5,2" points="933.5,-108 850.5,-108 850.5,-72 939.5,-72 939.5,-102 933.5,-108"/>
<polyline fill="none" stroke="black" stroke-dasharray="5,2" points="933.5,-108 933.5,-102 "/>
<polyline fill="none" stroke="black" stroke-dasharray="5,2" points="939.5,-102 933.5,-102 "/>
<text text-anchor="middle" x="895" y="-86.3" font-family="Helvetica,Arial,sans-serif" font-size="14.00">+.pb/.linsolv</text>
</g>
<!-- raspen&#45;&gt;mixin_rasp -->
<g id="edge27" class="edge">
<title>raspen&#45;&gt;mixin_rasp</title>
<path fill="none" stroke="black" stroke-dasharray="5,2" d="M897.44,-133.67C896.95,-125.05 896.42,-115.79 895.98,-108.1"/>
<polygon fill="none" stroke="black" points="893.95,-133.91 898.01,-143.7 900.93,-133.51 893.95,-133.91"/>
</g>
<!-- mixin_line -->
<g id="node41" class="node">
<title>mixin_line</title>
<polygon fill="none" stroke="black" stroke-dasharray="5,2" points="1295.5,-36 1178.5,-36 1178.5,0 1301.5,0 1301.5,-30 1295.5,-36"/>
<polyline fill="none" stroke="black" stroke-dasharray="5,2" points="1295.5,-36 1295.5,-30 "/>
<polyline fill="none" stroke="black" stroke-dasharray="5,2" points="1301.5,-30 1295.5,-30 "/>
<text text-anchor="middle" x="1240" y="-14.3" font-family="Helvetica,Arial,sans-serif" font-size="14.00">.state/.kwds/.oper</text>
</g>
<!-- linesearch&#45;&gt;mixin_line -->
<g id="edge38" class="edge">
<title>linesearch&#45;&gt;mixin_line</title>
<path fill="none" stroke="black" stroke-dasharray="5,2" d="M1240,-61.67C1240,-53.05 1240,-43.79 1240,-36.1"/>
<polygon fill="none" stroke="black" points="1236.5,-61.7 1240,-71.7 1243.5,-61.7 1236.5,-61.7"/>
</g>
<!-- mixin_conv -->
<g id="node43" class="node">
<title>mixin_conv</title>
<polygon fill="none" stroke="black" stroke-dasharray="5,2" points="1425.5,-36 1320.5,-36 1320.5,0 1431.5,0 1431.5,-30 1425.5,-36"/>
<polyline fill="none" stroke="black" stroke-dasharray="5,2" points="1425.5,-36 1425.5,-30 "/>
<polyline fill="none" stroke="black" stroke-dasharray="5,2" points="1431.5,-30 1425.5,-30 "/>
<text text-anchor="middle" x="1376" y="-14.3" font-family="Helvetica,Arial,sans-serif" font-size="14.00">.pb/.state/.kwds</text>
</g>
<!-- conv_manager&#45;&gt;mixin_conv -->
<g id="edge39" class="edge">
<title>conv_manager&#45;&gt;mixin_conv</title>
<path fill="none" stroke="black" stroke-dasharray="5,2" d="M1376,-61.67C1376,-53.05 1376,-43.79 1376,-36.1"/>
<polygon fill="none" stroke="black" points="1372.5,-61.7 1376,-71.7 1379.5,-61.7 1372.5,-61.7"/>
</g>
</g>
</svg>
